<?xml version="1.0" encoding="UTF-8" standalone="no"?>
<svg
   xmlns:osb="http://www.openswatchbook.org/uri/2009/osb"
   xmlns:dc="http://purl.org/dc/elements/1.1/"
   xmlns:cc="http://creativecommons.org/ns#"
   xmlns:rdf="http://www.w3.org/1999/02/22-rdf-syntax-ns#"
   xmlns:svg="http://www.w3.org/2000/svg"
   xmlns="http://www.w3.org/2000/svg"
   width="700"
   height="700"
   viewBox="0 0 700 700"
   version="1.1"
   xml:space="preserve"
   style="clip-rule:evenodd;fill-rule:evenodd;stroke-linejoin:round;stroke-miterlimit:2"
   id="svg92"><title
   id="title880">Asahi Linux logo (monochrome)</title><metadata
   id="metadata98"><rdf:RDF><cc:Work
       rdf:about=""><dc:format>image/svg+xml</dc:format><dc:type
         rdf:resource="http://purl.org/dc/dcmitype/StillImage" /><dc:title>Asahi Linux logo (monochrome)</dc:title><cc:license
         rdf:resource="http://creativecommons.org/licenses/by-sa/4.0/" /><dc:date>2021-01-03</dc:date><dc:creator><cc:Agent><dc:title>soundflora* / marcan</dc:title></cc:Agent></dc:creator><dc:contributor><cc:Agent><dc:title>Font: Bangla MN (c) 2009 Muthu Nedumaran
Used with permission</dc:title></cc:Agent></dc:contributor><dc:rights><cc:Agent><dc:title>CC BY-SA 4.0 / (c) 2021 soundflora*</dc:title></cc:Agent></dc:rights></cc:Work><cc:License
       rdf:about="http://creativecommons.org/licenses/by-sa/4.0/"><cc:permits
         rdf:resource="http://creativecommons.org/ns#Reproduction" /><cc:permits
         rdf:resource="http://creativecommons.org/ns#Distribution" /><cc:requires
         rdf:resource="http://creativecommons.org/ns#Notice" /><cc:requires
         rdf:resource="http://creativecommons.org/ns#Attribution" /><cc:permits
         rdf:resource="http://creativecommons.org/ns#DerivativeWorks" /><cc:requires
         rdf:resource="http://creativecommons.org/ns#ShareAlike" /></cc:License></rdf:RDF></metadata><defs
   id="defs96"><linearGradient
     id="linearGradient1402"
     osb:paint="solid"><stop
       style="stop-color:#000000;stop-opacity:1;"
       offset="0"
       id="stop1400" /></linearGradient><linearGradient
     id="linearGradient1364"
     osb:paint="solid"><stop
       style="stop-color:#000000;stop-opacity:1;"
       offset="0"
       id="stop1362" /></linearGradient></defs>
    
<g
   id="layer8"
   style="display:inline"
   transform="translate(350,550)"><g
     id="g1457"
     style="fill:#000000;fill-opacity:1"><path
       d="M -227.94415,53.589139 -197.34047,120.00001 H -208.45305 L -218.33089,98.304028 H -246.20053 L -256.51935,120.00001 H -261.98744 L -230.6782,53.589139 Z M -244.34843,94.158861 H -220.35938 L -232.17751,68.405907 Z"
       style="clip-rule:evenodd;fill:#000000;fill-opacity:1;fill-rule:nonzero"
       id="path1691-8" /><path
       d="M -173.15518,117.61874 C -171.83225,117.61874 -170.59752,117.35416 -169.45098,117.00138 -168.30445,116.5604 -167.3343,116.03123 -166.54055,115.32567 -165.6586,114.62011 -165.04123,113.82636 -164.60026,112.94441 -164.07109,112.06246 -163.8947,111.18051 -163.8947,110.21036 -163.8947,108.62285 -164.24748,107.29992 -165.04123,106.15339 -165.83499,105.00685 -166.80513,104.03671 -168.03986,103.15476 -169.36279,102.18461 -170.77391,101.39085 -172.36142,100.68529 -173.94893,99.891539 -175.62464,99.097784 -177.21215,98.304028 -178.88786,97.510273 -180.56356,96.628322 -182.15107,95.746372 -183.73858,94.864421 -185.1497,93.806081 -186.47263,92.57135 -187.70736,91.424814 -188.67751,90.013694 -189.47126,88.426183 -190.26502,86.838672 -190.6178,84.986576 -190.6178,82.869895 -190.6178,80.841409 -190.17682,78.989313 -189.38307,77.313607 -188.50112,75.549706 -187.35458,74.138585 -185.76707,72.903854 -184.26775,71.580929 -182.50385,70.610783 -180.38717,69.905223 -178.27049,69.287857 -175.97742,68.935077 -173.50796,68.935077 -171.83225,68.935077 -170.33294,69.023272 -168.83362,69.199662 -167.4225,69.464247 -166.01138,69.905223 -164.60026,70.522588 -163.27733,71.228148 -161.86621,72.110099 -160.45509,73.34483 -159.13216,74.57956 -157.63285,76.167071 -156.13353,78.195557 L -159.83772,81.458774 C -161.68982,78.371947 -163.8065,75.990681 -166.18777,74.491365 -168.48084,72.992049 -170.9503,72.198294 -173.59615,72.198294 -175.09547,72.198294 -176.3302,72.374684 -177.56493,72.727464 -178.71146,73.080244 -179.68161,73.52122 -180.56356,74.138585 -181.35732,74.75595 -182.06288,75.461511 -182.50385,76.255266 -183.03302,77.137217 -183.20941,78.019167 -183.20941,78.901118 -183.20941,80.400433 -182.76844,81.723359 -181.97468,82.7817 -181.18093,83.928235 -180.03439,84.898381 -178.71146,85.780331 -177.30034,86.750477 -175.71283,87.544232 -173.94893,88.337988 -172.27323,89.043548 -170.42113,89.837304 -168.65723,90.631059 -166.80513,91.424814 -165.04123,92.21857 -163.27733,93.188715 -161.60163,94.070666 -160.01411,95.129006 -158.60299,96.275542 -157.28007,97.510273 -156.13353,98.921394 -155.33978,100.42071 -154.45783,102.00822 -154.10505,103.86032 -154.10505,105.977 -154.10505,108.09368 -154.45783,110.03397 -155.25158,111.88607 -156.04534,113.73816 -157.19187,115.32567 -158.77938,116.6486 -160.36689,118.05972 -162.39538,119.11806 -164.77665,119.91181 -167.15791,120.70557 -169.98016,121.05835 -173.15518,121.05835 -174.65449,121.05835 -176.15381,120.97016 -177.74132,120.70557 -179.24064,120.52918 -180.82815,120.08821 -182.41566,119.38264 -184.00317,118.67708 -185.50248,117.79513 -187.08999,116.5604 -188.67751,115.32567 -190.17682,113.73816 -191.67614,111.79787 L -187.61916,108.18187 C -186.47263,109.85758 -185.2379,111.2687 -184.17956,112.50343 -183.03302,113.64997 -181.88649,114.62011 -180.73995,115.41387 -179.59342,116.20762 -178.35868,116.73679 -177.21215,117.08957 -175.97742,117.44235 -174.65449,117.61874 -173.15518,117.61874 Z"
       style="clip-rule:evenodd;fill:#000000;fill-opacity:1;fill-rule:nonzero"
       id="path1695-8" /><path
       d="M -108.7434,120.00001 C -110.06632,119.38264 -111.12466,118.4125 -112.09481,117.26596 -112.97676,116.03123 -113.41774,114.70831 -113.41774,113.1208 -114.56427,114.00275 -115.71081,114.97289 -116.85734,115.85484 -118.00388,116.82499 -119.23861,117.70694 -120.56153,118.4125 -121.88446,119.20625 -123.29558,119.82362 -124.97129,120.35279 -126.5588,120.79377 -128.41089,121.05835 -130.52758,121.05835 -132.55606,121.05835 -134.31996,120.79377 -135.90747,120.08821 -137.49498,119.47084 -138.81791,118.58889 -139.87625,117.53055 -141.02279,116.38401 -141.81654,115.06109 -142.43391,113.56177 -143.05127,111.97426 -143.31586,110.38675 -143.31586,108.62285 -143.31586,106.41797 -142.96308,104.47768 -142.08113,102.71378 -141.19918,101.03807 -140.05264,99.450564 -138.55332,98.127638 -137.05401,96.804712 -135.3783,95.569982 -133.43801,94.511641 -131.40953,93.453301 -129.38104,92.483155 -127.08797,91.6894 -124.88309,90.807449 -122.59002,90.101889 -120.29695,89.396328 -117.91568,88.778963 -115.62261,88.161598 -113.41774,87.632427 V 84.457406 C -113.41774,82.164334 -113.59413,80.224043 -113.85871,78.724728 -114.21149,77.137217 -114.74066,75.902486 -115.44622,74.93234 -116.06359,73.962195 -116.94554,73.256635 -118.00388,72.815659 -119.06222,72.462879 -120.38514,72.198294 -121.79627,72.198294 -123.20739,72.198294 -124.53031,72.462879 -125.67685,73.080244 -126.91158,73.609415 -127.88172,74.314975 -128.85187,75.285121 -129.73382,76.255266 -130.43938,77.313607 -131.05675,78.548337 -131.58592,79.871263 -131.9387,81.194189 -132.20328,82.60531 H -141.28737 C -141.02279,80.400433 -140.31723,78.460142 -139.08249,76.784436 -137.84776,75.108731 -136.26025,73.69761 -134.40816,72.462879 -132.55606,71.316344 -130.43938,70.434393 -128.05811,69.817028 -125.67685,69.199662 -123.29558,68.935077 -120.73792,68.935077 -117.47471,68.935077 -114.74066,69.199662 -112.44759,69.817028 -110.24271,70.522588 -108.47881,71.404539 -107.15589,72.551074 -105.83296,73.69761 -104.86282,75.020536 -104.24545,76.696241 -103.71628,78.371947 -103.4517,80.224043 -103.4517,82.164334 V 113.1208 C -103.4517,114.70831 -102.92253,116.03123 -102.04057,117.26596 -101.15862,118.4125 -100.10028,119.38264 -98.777358,120.00001 Z M -113.41774,90.807449 C -114.82886,91.248424 -116.32817,91.777595 -117.82749,92.39496 -119.415,92.92413 -120.91431,93.629691 -122.41363,94.335251 -123.82475,95.129006 -125.23587,95.834567 -126.5588,96.716517 -127.96992,97.598468 -129.11645,98.480418 -130.0866,99.450564 -131.14494,100.42071 -131.9387,101.47905 -132.55606,102.53739 -133.08523,103.59573 -133.43801,104.74227 -133.43801,105.977 -133.43801,107.21173 -133.17343,108.35826 -132.73245,109.4166 -132.29148,110.56314 -131.67411,111.53329 -130.88036,112.32704 -130.17479,113.1208 -129.29284,113.82636 -128.3227,114.26733 -127.35255,114.7965 -126.29421,114.97289 -125.23587,114.97289 -124.17753,114.97289 -123.11919,114.8847 -122.06085,114.53192 -121.0907,114.26733 -120.12056,113.82636 -119.15041,113.38538 -118.18027,112.85621 -117.21012,112.23885 -116.32817,111.62148 -115.35803,111.00412 -114.38788,110.29855 -113.41774,109.5048 Z"
       style="clip-rule:evenodd;fill:#000000;fill-opacity:1;fill-rule:nonzero"
       id="path1699-4" /><path
       d="M -77.32832,79.077508 C -74.329688,75.637901 -71.154666,73.080244 -67.89145,71.404539 -64.628233,69.728833 -61.276821,68.935077 -57.925409,68.935077 -56.161508,68.935077 -54.485802,69.287857 -52.986487,70.081613 -51.487171,70.875368 -50.164245,71.933709 -49.017709,73.34483 -47.871174,74.667755 -46.901028,76.255266 -46.283663,78.107362 -45.666298,79.959458 -45.313517,81.987944 -45.313517,84.01643 V 120.00001 H -55.279558 V 85.780331 C -55.279558,82.42892 -55.985118,79.871263 -57.484434,78.195557 -58.98375,76.431656 -60.924041,75.637901 -63.305307,75.637901 -64.363648,75.637901 -65.421988,75.814291 -66.656719,76.167071 -67.803255,76.519851 -68.94979,76.960827 -70.184521,77.666387 -71.419252,78.283752 -72.653982,79.077508 -73.800518,79.959458 -75.035249,80.841409 -76.181784,81.811554 -77.32832,82.869895 V 120.00001 H -87.29436 V 47.062705 L -80.150561,44.240464 H -77.32832 Z"
       style="clip-rule:evenodd;fill:#000000;fill-opacity:1;fill-rule:nonzero"
       id="path1703-1" /><path
       d="M -26.866053,71.757319 -19.898644,68.935077 H -16.988207 V 120.00001 H -26.866053 Z M -27.659808,50.590507 C -27.659808,49.796752 -27.483418,49.091191 -27.218833,48.385631 -26.954248,47.768266 -26.513273,47.1509 -25.984102,46.62173 -25.454932,46.09256 -24.837567,45.651585 -24.220201,45.386999 -23.514641,45.122414 -22.720886,44.946024 -22.015325,44.946024 -21.22157,44.946024 -20.427814,45.122414 -19.810449,45.386999 -19.104889,45.651585 -18.487523,46.09256 -17.958353,46.62173 -17.429183,47.1509 -16.988207,47.768266 -16.723622,48.385631 -16.459037,49.091191 -16.282647,49.796752 -16.282647,50.590507 -16.282647,51.384263 -16.459037,52.178018 -16.723622,52.795383 -16.988207,53.500944 -17.429183,54.118309 -17.958353,54.647479 -18.487523,55.17665 -19.104889,55.52943 -19.810449,55.88221 -20.427814,56.146795 -21.22157,56.323185 -22.015325,56.323185 -22.720886,56.323185 -23.514641,56.146795 -24.220201,55.88221 -24.837567,55.52943 -25.454932,55.17665 -25.984102,54.647479 -26.513273,54.118309 -26.954248,53.500944 -27.218833,52.795383 -27.483418,52.178018 -27.659808,51.384263 -27.659808,50.590507 Z"
       style="clip-rule:evenodd;fill:#000000;fill-opacity:1;fill-rule:nonzero"
       id="path1707-9" /><path
       d="M 21.920508,55.00026 H 32.856694 V 115.76665 H 65.577057 V 120.00001 H 21.920508 Z"
       style="clip-rule:evenodd;fill:#000000;fill-opacity:1;fill-rule:nonzero"
       id="path1711-0" /><path
       d="M 76.123714,71.757319 83.091123,68.935077 H 86.00156 V 120.00001 H 76.123714 Z M 75.329959,50.590507 C 75.329959,49.796752 75.506349,49.091191 75.770934,48.385631 76.035519,47.768266 76.476494,47.1509 77.005665,46.62173 77.534835,46.09256 78.1522,45.651585 78.769566,45.386999 79.475126,45.122414 80.268881,44.946024 80.974442,44.946024 81.768197,44.946024 82.561953,45.122414 83.179318,45.386999 83.884878,45.651585 84.502244,46.09256 85.031414,46.62173 85.560584,47.1509 86.00156,47.768266 86.266145,48.385631 86.53073,49.091191 86.70712,49.796752 86.70712,50.590507 86.70712,51.384263 86.53073,52.178018 86.266145,52.795383 86.00156,53.500944 85.560584,54.118309 85.031414,54.647479 84.502244,55.17665 83.884878,55.52943 83.179318,55.88221 82.561953,56.146795 81.768197,56.323185 80.974442,56.323185 80.268881,56.323185 79.475126,56.146795 78.769566,55.88221 78.1522,55.52943 77.534835,55.17665 77.005665,54.647479 76.476494,54.118309 76.035519,53.500944 75.770934,52.795383 75.506349,52.178018 75.329959,51.384263 75.329959,50.590507 Z"
       style="clip-rule:evenodd;fill:#000000;fill-opacity:1;fill-rule:nonzero"
       id="path1715-8" /><path
       d="M 111.48258,68.935077 H 114.30482 V 79.077508 C 117.39165,75.637901 120.56667,73.080244 123.82989,71.404539 127.0931,69.728833 130.35632,68.935077 133.70773,68.935077 135.47163,68.935077 137.14734,69.287857 138.64665,70.081613 140.14597,70.875368 141.4689,71.933709 142.61543,73.34483 143.76197,74.667755 144.73211,76.255266 145.34948,78.107362 145.96684,79.959458 146.31962,81.987944 146.31962,84.01643 V 120.00001 H 136.35358 V 85.780331 C 136.35358,84.104625 136.17719,82.60531 135.82441,81.370579 135.38344,80.135848 134.85427,79.077508 134.14871,78.195557 133.44315,77.313607 132.5612,76.696241 131.59105,76.255266 130.6209,75.814291 129.56256,75.637901 128.41603,75.637901 127.35769,75.637901 126.21115,75.814291 125.06462,76.167071 123.91808,76.519851 122.68335,76.960827 121.44862,77.666387 120.21389,78.283752 118.97916,79.077508 117.83262,79.959458 116.59789,80.841409 115.45136,81.811554 114.30482,82.869895 V 120.00001 H 104.33878 V 71.669124 Z"
       style="clip-rule:evenodd;fill:#000000;fill-opacity:1;fill-rule:nonzero"
       id="path1719-2" /><path
       d="M 173.4396,69.817028 V 105.53602 C 173.4396,106.77075 173.79238,108.00548 174.32155,109.06382 174.93891,110.21036 175.73267,111.18051 176.70281,111.97426 177.67296,112.76802 178.90769,113.38538 180.23061,113.91455 181.55354,114.35553 182.96466,114.62011 184.46398,114.62011 185.43412,114.62011 186.49246,114.35553 187.639,114.00275 188.78553,113.56177 189.84387,112.94441 190.99041,112.23885 192.04875,111.53329 193.0189,110.65133 193.98904,109.68119 194.87099,108.62285 195.66475,107.56451 196.37031,106.50617 V 69.817028 H 206.24815 V 120.00001 H 196.37031 V 110.56314 C 195.48836,112.06246 194.34182,113.38538 193.0189,114.62011 191.69597,115.94304 190.28485,117.00138 188.78553,117.97152 187.19802,118.94167 185.61051,119.64723 184.023,120.2646 182.3473,120.79377 180.84798,121.05835 179.34866,121.05835 177.14379,121.05835 175.1153,120.70557 173.17501,119.82362 171.23472,119.02986 169.55901,117.88333 168.14789,116.5604 166.64858,115.14928 165.59024,113.47358 164.70829,111.53329 163.91453,109.68119 163.47355,107.6527 163.47355,105.53602 V 69.817028 Z"
       style="clip-rule:evenodd;fill:#000000;fill-opacity:1;fill-rule:nonzero"
       id="path1723-6" /><path
       d="M 215.59683,69.817028 H 227.32677 L 261.98743,120.00001 H 250.25748 Z M 220.97673,120.00001 H 215.59683 L 256.51933,69.817028 H 261.98743 Z"
       style="clip-rule:evenodd;fill:#000000;fill-opacity:1;fill-rule:nonzero"
       id="path1727-9" /></g></g><g
   id="layer2"
   style="display:inline;opacity:1"><g
     id="g1560"
     style="fill:#000000;fill-opacity:1"><g
       id="g1445"
       style="fill:#000000;fill-opacity:1"
       transform="translate(0,6.5e-4)"><path
         style="color:#000000;overflow:visible;fill:#000000;fill-opacity:1;fill-rule:evenodd;paint-order:stroke markers fill"
         d="M 452.45312,411.80078 356.27148,545.55664 483.73242,455.27344 Z"
         id="path1291" /><path
         style="color:#000000;overflow:visible;fill:#000000;fill-opacity:1;fill-rule:evenodd;paint-order:stroke markers fill"
         d="M 390,325 V 443.2093 L 432.5663,384.10669 Z"
         id="path1289" /><path
         style="color:#000000;overflow:visible;fill:#000000;fill-opacity:1;fill-rule:evenodd;paint-order:stroke markers fill"
         d="M 476.23047,152.19531 475.96484,152.30664 353.86523,203.41797 517.66406,431.21484 A 2.5,2.5 0 0 1 517.67383,431.23047 L 600,372.91602 Z"
         id="path1287" /><path
         style="color:#000000;overflow:visible;fill:#000000;fill-opacity:1;fill-rule:evenodd;paint-order:stroke markers fill"
         d="M 223.76953,152.19531 100,372.91602 347.5,548.23047 V 203.98828 L 224.03516,152.30664 Z"
         id="path1285" /><path
         style="color:#000000;overflow:visible;fill:#000000;fill-opacity:1;fill-rule:evenodd;paint-order:stroke markers fill"
         d="M 352.5,108.39648 V 160.58984 L 329.46484,114.52148 228.57422,148.78516 350,199.61523 471.42578,148.78516 Z"
         id="path1283" /><path
         id="path1631-9"
         style="color:#000000;clip-rule:evenodd;display:inline;overflow:visible;fill:#000000;fill-opacity:1;fill-rule:evenodd;paint-order:stroke markers fill"
         d="M 390,25 352.5,53.845703 V 75 H 400 Z" /></g><path
       id="path1633-6"
       style="color:#000000;clip-rule:evenodd;display:inline;overflow:visible;fill-opacity:1;fill-rule:evenodd;stroke:none;stroke-width:1;stroke-linecap:round;stroke-linejoin:round;stroke-miterlimit:2;stroke-dasharray:none;stroke-opacity:0.5;paint-order:stroke markers fill;fill:#000000"
       d="M 347.5 26.25 L 302.23633 48.882812 L 347.5 139.41016 L 347.5 26.25 z " /></g></g></svg>
